
<svg width="1300" height="452.031" xmlns="http://www.w3.org/2000/svg" version="1.0">

 <g>
  <title>Layer 1</title>
  <g id="svg_4">
   <path id="svg_1" fill-rule="evenodd" fill="#f90" d="m770.38,311.0065c-58.111,42.833 -142.34,65.686 -214.86,65.686c-101.685,0 -193.227,-37.61 -262.483,-100.161c-5.44,-4.92 -0.565,-11.623 5.964,-7.792c74.74,43.486 167.153,69.647 262.613,69.647c64.38,0 135.202,-13.32 200.322,-40.961c9.837,-4.179 18.064,6.442 8.444,13.581"/>
   <path id="svg_2" fill-rule="evenodd" fill="#f90" d="m794.54,283.3655c-7.4,-9.49 -49.102,-4.484 -67.82,-2.264c-5.702,0.697 -6.572,-4.266 -1.436,-7.835c33.213,-23.375 87.712,-16.628 94.067,-8.793c6.355,7.879 -1.654,62.508 -32.865,88.582c-4.788,4.005 -9.359,1.872 -7.226,-3.439c7.009,-17.498 22.723,-56.718 15.28,-66.251"/>
   <path id="svg_3" fill-rule="evenodd" d="m728.026,108.2465l0,-22.722c0,-3.439 2.612,-5.746 5.746,-5.746l101.728,0c3.265,0 5.877,2.35 5.877,5.746l0,19.457c-0.044,3.265 -2.786,7.531 -7.661,14.278l-52.714,75.262c19.588,-0.478 40.264,2.438 58.024,12.45c4.005,2.263 5.093,5.572 5.398,8.836l0,24.246c0,3.308 -3.657,7.182 -7.487,5.18c-31.298,-16.41 -72.868,-18.195 -107.474,0.174c-3.526,1.916 -7.226,-1.915 -7.226,-5.223l0,-23.027c0,-3.7 0.043,-10.012 3.743,-15.627l61.072,-87.581l-53.15,0c-3.264,0 -5.876,-2.307 -5.876,-5.703m-371.087,141.775l-30.95,0c-2.96,-0.217 -5.31,-2.437 -5.528,-5.267l0,-158.838c0,-3.178 2.655,-5.703 5.963,-5.703l28.86,0c3.004,0.13 5.398,2.438 5.616,5.31l0,20.765l0.566,0c7.53,-20.067 21.677,-29.425 40.743,-29.425c19.37,0 31.472,9.358 40.178,29.425c7.487,-20.067 24.507,-29.425 42.746,-29.425c12.971,0 27.162,5.354 35.824,17.368c9.794,13.363 7.792,32.777 7.792,49.797l-0.044,100.248c0,3.178 -2.655,5.746 -5.963,5.746l-30.906,0c-3.09,-0.217 -5.572,-2.698 -5.572,-5.746l0,-84.186c0,-6.704 0.61,-23.42 -0.87,-29.774c-2.307,-10.665 -9.228,-13.669 -18.196,-13.669c-7.487,0 -15.322,5.006 -18.5,13.016c-3.177,8.01 -2.872,21.416 -2.872,30.427l0,84.185c0,3.178 -2.656,5.746 -5.964,5.746l-30.906,0c-3.134,-0.217 -5.572,-2.698 -5.572,-5.746l-0.043,-84.185c0,-17.717 2.916,-43.79 -19.066,-43.79c-22.243,0 -21.373,25.42 -21.373,43.79l0,84.185c0,3.178 -2.655,5.746 -5.963,5.746m572.019,-173.159c45.923,0 70.779,39.437 70.779,89.583c0,48.448 -27.467,86.885 -70.78,86.885c-45.096,0 -69.646,-39.438 -69.646,-88.583c0,-49.449 24.855,-87.885 69.647,-87.885m0.261,32.429c-22.81,0 -24.246,31.08 -24.246,50.45c0,19.415 -0.304,60.854 23.985,60.854c23.985,0 25.116,-33.43 25.116,-53.802c0,-13.407 -0.566,-29.426 -4.614,-42.136c-3.482,-11.057 -10.403,-15.366 -20.24,-15.366m130.065,140.73l-30.819,0c-3.09,-0.217 -5.572,-2.698 -5.572,-5.746l-0.043,-158.882c0.26,-2.916 2.83,-5.18 5.963,-5.18l28.686,0c2.699,0.13 4.919,1.96 5.528,4.44l0,24.29l0.566,0c8.663,-21.721 20.807,-32.081 42.18,-32.081c13.886,0 27.424,5.005 36.13,18.717c8.096,12.71 8.096,34.084 8.096,49.45l0,99.986c-0.348,2.786 -2.916,5.006 -5.963,5.006l-31.037,0c-2.83,-0.217 -5.18,-2.307 -5.485,-5.006l0,-86.275c0,-17.368 2.003,-42.79 -19.37,-42.79c-7.53,0 -14.452,5.05 -17.89,12.711c-4.354,9.708 -4.92,19.371 -4.92,30.08l0,85.534c-0.043,3.178 -2.742,5.746 -6.05,5.746m-412.354,-75.871c0,12.057 0.305,22.113 -5.79,32.82c-4.918,8.707 -12.753,14.06 -21.416,14.06c-11.883,0 -18.848,-9.053 -18.848,-22.417c0,-26.379 23.637,-31.167 46.054,-31.167l0,6.704m31.21,75.436c-2.045,1.828 -5.005,1.959 -7.312,0.74c-10.273,-8.532 -12.145,-12.493 -17.76,-20.633c-16.977,17.325 -29.034,22.505 -51.017,22.505c-26.074,0 -46.315,-16.063 -46.315,-48.23c0,-25.117 13.581,-42.224 32.995,-50.582c16.803,-7.4 40.265,-8.706 58.2,-10.752l0,-4.004c0,-7.357 0.565,-16.063 -3.788,-22.418c-3.743,-5.702 -10.97,-8.053 -17.368,-8.053c-11.797,0 -22.287,6.05 -24.855,18.587c-0.523,2.786 -2.569,5.528 -5.398,5.659l-29.992,-3.221c-2.524,-0.566 -5.354,-2.612 -4.614,-6.486c6.878,-36.39 39.786,-47.36 69.213,-47.36c15.061,0 34.736,4.005 46.62,15.41c15.06,14.06 13.624,32.82 13.624,53.236l0,48.23c0,14.496 6.008,20.85 11.666,28.686c1.96,2.786 2.394,6.138 -0.13,8.227c-6.312,5.267 -17.543,15.061 -23.724,20.546l-0.043,-0.087m-436.949,-75.436c0,12.057 0.305,22.113 -5.79,32.82c-4.918,8.707 -12.71,14.06 -21.416,14.06c-11.883,0 -18.805,-9.053 -18.805,-22.417c0,-26.379 23.637,-31.167 46.011,-31.167l0,6.704m31.21,75.436c-2.045,1.828 -5.005,1.959 -7.312,0.74c-10.273,-8.532 -12.102,-12.493 -17.76,-20.633c-16.977,17.325 -28.99,22.505 -51.017,22.505c-26.03,0 -46.315,-16.063 -46.315,-48.23c0,-25.117 13.625,-42.224 32.995,-50.582c16.803,-7.4 40.265,-8.706 58.199,-10.752l0,-4.004c0,-7.357 0.566,-16.063 -3.744,-22.418c-3.787,-5.702 -11.012,-8.053 -17.368,-8.053c-11.796,0 -22.33,6.05 -24.899,18.587c-0.522,2.786 -2.568,5.528 -5.354,5.659l-30.035,-3.221c-2.525,-0.566 -5.31,-2.612 -4.614,-6.486c6.921,-36.39 39.786,-47.36 69.212,-47.36c15.06,0 34.736,4.005 46.62,15.41c15.06,14.06 13.624,32.82 13.624,53.236l0,48.23c0,14.496 6.007,20.85 11.666,28.686c2.003,2.786 2.438,6.138 -0.087,8.227c-6.312,5.267 -17.542,15.061 -23.723,20.546l-0.087,-0.087"/>
  </g>
 </g>
</svg>