
<svg width="510" height="416" xmlns="http://www.w3.org/2000/svg" fill="none">
 <defs>
  <filter color-interpolation-filters="sRGB" filterUnits="userSpaceOnUse" height="125.955" width="173.661" y="78.0618" x="154.729" id="filter0_d">
   <feGaussianBlur stdDeviation="17"/>
  </filter>
  <filter color-interpolation-filters="sRGB" filterUnits="userSpaceOnUse" height="89.6463" width="77.0601" y="142.316" x="257.401" id="filter1_d">
   <feGaussianBlur stdDeviation="17"/>
  </filter>
  <filter color-interpolation-filters="sRGB" filterUnits="userSpaceOnUse" height="114.046" width="92.2497" y="128.693" x="241.663" id="filter2_d">
   <feGaussianBlur stdDeviation="17"/>
  </filter>
  <filter color-interpolation-filters="sRGB" filterUnits="userSpaceOnUse" height="89.6463" width="77.0601" y="142.316" x="146.767" id="filter3_d">
   <feGaussianBlur stdDeviation="17"/>
  </filter>
  <filter color-interpolation-filters="sRGB" filterUnits="userSpaceOnUse" height="114.046" width="92.2497" y="128.693" x="147.163" id="filter4_d">
   <feGaussianBlur stdDeviation="17"/>
  </filter>
  <linearGradient y2="0.95353" x2="0.41978" y1="-0.38822" x1="0.40651" id="paint0_linear">
   <stop stop-color="#FFEFE0"/>
   <stop stop-color="#FFBE99" offset="1"/>
  </linearGradient>
  <linearGradient y2="1.18793" x2="0.49" y1="-0.16501" x1="0.53786" id="paint1_linear">
   <stop stop-color="#FF9F81"/>
   <stop stop-color="#F53838" offset="1"/>
  </linearGradient>
  <linearGradient y2="0.13065" x2="0.15205" y1="-0.60513" x1="0.96253" id="paint2_linear">
   <stop stop-color="#FFEFE0" offset="0.0678"/>
   <stop stop-color="#FFBE99" offset="1"/>
  </linearGradient>
  <linearGradient y2="0.56072" x2="0.52" y1="-0.79293" x1="0.47166" id="paint3_linear">
   <stop stop-color="#FFEFE0"/>
   <stop stop-color="#FFBE99" offset="1"/>
  </linearGradient>
  <linearGradient y2="0.74922" x2="0.40388" y1="-0.79292" x1="0.47158" id="paint4_linear">
   <stop stop-color="#FFEFE0"/>
   <stop stop-color="#FFBE99" offset="1"/>
  </linearGradient>
  <linearGradient y2="0.90707" x2="0.51706" y1="0.09048" x1="0.51706" id="paint5_linear">
   <stop stop-color="#FFEFE0"/>
   <stop stop-color="#FFBE99" offset="1"/>
  </linearGradient>
  <linearGradient y2="1.23239" x2="0.33676" y1="-0.7505" x1="0.70649" id="paint6_linear">
   <stop stop-color="white" offset="0.01718"/>
   <stop stop-color="#D7D7D7" offset="1"/>
  </linearGradient>
  <linearGradient y2="1.0454" x2="0.50003" y1="0.10644" x1="0.50003" id="paint7_linear">
   <stop stop-color="#FFE89E"/>
   <stop stop-color="#FFBF1A" offset="1"/>
  </linearGradient>
  <linearGradient y2="1.04534" x2="0.50002" y1="0.10645" x1="0.50002" id="paint8_linear">
   <stop stop-color="#FFE89E"/>
   <stop stop-color="#FFBF1A" offset="1"/>
  </linearGradient>
  <linearGradient y2="1.04535" x2="0.5" y1="0.10644" x1="0.5" id="paint9_linear">
   <stop stop-color="#FFE89E"/>
   <stop stop-color="#FFBF1A" offset="1"/>
  </linearGradient>
  <linearGradient y2="1.04538" x2="0.5" y1="0.10645" x1="0.5" id="paint10_linear">
   <stop stop-color="#FFE89E"/>
   <stop stop-color="#FFBF1A" offset="1"/>
  </linearGradient>
  <linearGradient y2="1.0454" x2="0.49997" y1="0.10644" x1="0.49997" id="paint11_linear">
   <stop stop-color="#FFE89E"/>
   <stop stop-color="#FFBF1A" offset="1"/>
  </linearGradient>
  <linearGradient y2="1.04534" x2="0.49996" y1="0.10645" x1="0.49996" id="paint12_linear">
   <stop stop-color="#FFE89E"/>
   <stop stop-color="#FFBF1A" offset="1"/>
  </linearGradient>
  <linearGradient y2="1.04535" x2="0.50003" y1="0.10644" x1="0.50003" id="paint13_linear">
   <stop stop-color="#FFE89E"/>
   <stop stop-color="#FFBF1A" offset="1"/>
  </linearGradient>
  <linearGradient y2="1.04538" x2="0.50002" y1="0.10645" x1="0.50002" id="paint14_linear">
   <stop stop-color="#FFE89E"/>
   <stop stop-color="#FFBF1A" offset="1"/>
  </linearGradient>
 </defs>
 <g>
  <title>Layer 1</title>
  <g id="Illustration 2">
   <path fill="url(#paint0_linear)" d="m380.58915,294.22107l-39.722,-23.318l-31.201,46.432c18.228,15.212 48.851,26.275 64.675,22.897c32.474,-6.933 98.097,-99.136 107.203,-106.156c30.998,-23.897 41.074,-32.966 2.286,-14.397c-36.981,17.704 -17.394,0 -26.454,0c-10.885,0.76 -7.278,10.421 -3.238,17.343l-73.549,57.199z" id="Vector 92"/>
   <path fill="url(#paint1_linear)" d="m155.20715,258.89607c11.207,-7.782 55.489,-21.8 74.937,-27.837l20.575,2.245c12.964,3.214 40.771,8.693 53.561,13.879c12.791,5.185 36.003,21.722 57.658,35.512l-5.113,17.708c-4.592,15.903 -16.735,28.515 -32.453,33.706c-4.045,25.722 -7.533,67.539 -6.957,80.503l-150.486,-0.117l-6.889,-63.648l-30.989,3.32l-26.177,-20.058c32.777,-56.694 38.325,-65.485 52.333,-75.213z" id="Vector 52"/>
   <path fill="url(#paint2_linear)" d="m112.15615,405.15007c-47.6807,-6.045 -16.6696,-54.37 -8.216,-70.329c10.225,8.607 22.851,13.858 36.164,15.041l16.431,1.459l-6.728,15.522l72.639,17.006l10.191,28.271c-7.259,-1.236 -61.188,0.549 -120.481,-6.97z" id="Vector 91"/>
   <path fill="#30235B" d="m235.21515,104.18507c2.347,-4.2434 9.077,-10.1846 17.224,0l-17.224,0z" id="Vector 79"/>
   <ellipse fill="#CF0606" ry="18.5082" rx="25.9725" cy="249.56807" cx="239.12715" id="Ellipse 188"/>
   <path fill="url(#paint3_linear)" d="m217.84615,248.57307l3.63,-36.149l35.345,0l4.06,36.149c-1.419,4.257 -8.119,12.893 -20.525,12.893c-15.813,0 -21.497,-8.636 -22.51,-12.893z" id="Vector 83"/>
   <g id="Mask Group">
    <mask height="50" width="44" y="212" x="218" maskUnits="userSpaceOnUse" id="mask0">
     <path fill="url(#paint4_linear)" d="m218.429,248.388l3.63,-36.149l35.345,0l4.068,36.222c-1.419,4.257 -8.142,12.821 -20.549,12.821c-15.812,0 -21.481,-8.637 -22.494,-12.894z" id="Vector 81"/>
    </mask>
    <g id="svg_1" mask="url(#mask0)">
     <path fill="black" d="m269.55915,213.80807c-31.959,39.542 -49.818,7.748 -59.043,2.979l6.339,-26.732l37.842,-4.519l14.862,28.272z" opacity="0.1" id="Vector 82"/>
    </g>
   </g>
   <path fill="url(#paint5_linear)" d="m238.51415,226.93607c-38.117,0 -44.672,-54.715 -32.895,-79.741c26.498,-32.387 59.622,-13.495 72.871,0c3.19,20.855 6.707,79.741 -39.976,79.741z" id="Vector 77"/>
   <path fill="#111111" d="m279.14115,185.07807l-7.468,-5.501l1.155,-4.096l8.53,5.625l-2.217,3.972z" id="Vector 89"/>
   <path fill="#111111" d="m201.33615,183.48307l7.468,-5.502l-1.155,-4.095l-8.53,5.624l2.217,3.973z" id="Vector 90"/>
   <path fill="#30235B" d="m208.17015,150.48307c27.024,17.607 56.982,7.336 68.583,0c-2.443,7.704 1.018,22.513 3.053,28.954c17.584,-22.898 11.835,-35.263 6.763,-38.584c-0.845,-11.412 -11.22,-39.946 -46.049,-38.594c-34.829,1.353 -41.588,26.055 -40.601,35.213c-13.188,17.922 -5.342,35.444 1.019,41.965c7.232,-14.04 7.067,-23.889 7.232,-28.954z" id="Vector 78"/>
   <g filter="url(#filter0_d)" id="Vector 80">
    <path id="svg_2" fill="white" d="m243.28815,119.88007c-40.343,-1.351 -49.329,25.181 -50.535,40.587c-0.097,1.234 -1.106,2.205 -2.343,2.205c-1.321,0 -2.373,-1.101 -2.255,-2.416c1.76,-19.754 12.292,-54.272 55.133,-51.892c43.256,2.403 51.718,36.838 50.391,56.034c-0.071,1.027 -0.939,1.803 -1.969,1.803c-1.123,0 -2.024,-0.911 -2.069,-2.033c-0.636,-15.927 -11.224,-43.27 -46.353,-44.288z"/>
   </g>
   <g filter="url(#filter1_d)" id="Rectangle 315">
    <rect transform="rotate(10.0542 294.486 172.501)" id="svg_3" fill="#24C28A" rx="2.73785" height="21.0131" width="5.4757" y="172.50107" x="294.48615"/>
   </g>
   <g filter="url(#filter2_d)" id="Rectangle 312">
    <rect transform="rotate(10.0542 282.722 158.878)" id="svg_4" fill="white" rx="8.43338" height="43.7733" width="16.8668" y="158.87807" x="282.72215"/>
   </g>
   <g filter="url(#filter3_d)" id="Rectangle 314">
    <rect x="0.60621" y="0.08047" id="svg_5" fill="#24C28A" transform="matrix(-0.984643 0.17458 0.17458 0.984643 186.159 172.316)" rx="2.73785" height="21.0131" width="5.4757"/>
   </g>
   <g filter="url(#filter4_d)" id="Rectangle 313">
    <rect x="0.60621" y="0.08047" id="svg_6" fill="white" transform="matrix(-0.984643 0.17458 0.17458 0.984643 197.77 158.693)" rx="8.43338" height="43.7733" width="16.8668"/>
   </g>
   <g id="Mask Group_2">
    <mask height="47" width="25" y="158" x="181" maskUnits="userSpaceOnUse" id="mask1">
     <rect fill="white" transform="matrix(-0.984643 0.17458 0.17458 0.984643 197.77 158.693)" rx="8.43338" height="43.7733" width="16.8668" id="Rectangle 316"/>
    </mask>
    <g id="svg_7" mask="url(#mask1)">
     <rect transform="rotate(-10.0977 189.245 158.878)" fill="#E8E8E8" height="47.5168" width="21.9399" y="158.87807" x="189.24515" id="Rectangle 317"/>
    </g>
   </g>
   <g id="Mask Group_3">
    <mask height="47" width="25" y="158" x="275" maskUnits="userSpaceOnUse" id="mask2">
     <rect fill="white" transform="rotate(10.0542 283.305 158.693)" rx="8.43338" height="43.7733" width="16.8668" y="158.693" x="283.305" id="Rectangle 316_2"/>
    </mask>
    <g id="svg_8" mask="url(#mask2)">
     <rect x="0.54137" y="0.28439" fill="#E8E8E8" transform="matrix(-0.98451 -0.175326 -0.175326 0.98451 292.271 158.693)" height="47.5168" width="21.9399" id="Rectangle 317_2"/>
    </g>
   </g>
   <path fill="#E6FCFF" d="m222.08915,191.46907c-5.392,0 -8.108,-4.25 -8.798,-6.147c-0.794,-1.587 -1.42,-5.722 0.459,-9.007c2.389,-4.176 13.618,-5.341 17.552,0.559c3.933,5.9 0,14.595 -9.213,14.595z" opacity="0.5" id="Vector 87"/>
   <path fill="#E6FCFF" d="m257.82015,191.46907c5.393,0 8.108,-4.25 8.798,-6.147c0.794,-1.587 1.421,-5.722 -0.458,-9.007c-2.389,-4.176 -13.619,-5.341 -17.552,0.559c-3.934,5.9 0,14.595 9.212,14.595z" opacity="0.5" id="Vector 88"/>
   <path fill="#111111" d="m234.08715,175.57207c-8.794,-7.723 -16.738,-4.455 -21.445,-2.519c-0.523,0.215 -1.007,0.414 -1.447,0.58l-2.947,0.005c-0.555,0.001 -1.003,0.454 -0.998,1.009l0.022,2.478c0.005,0.549 0.451,0.991 1,0.991l2.131,0c-1.544,13.251 8.228,16.797 16.043,14.408c6.968,-2.129 8.833,-8.154 9.206,-11.934c1.49,-3.303 8.025,-1.777 8.283,-0.074c0.006,0.04 0.013,0.085 0.02,0.134l0,0c0.307,2.074 1.852,12.522 13.615,12.537c9.635,0.012 12.248,-8.595 12.351,-12.901l2.494,-0.022c0.552,-0.005 0.996,-0.457 0.991,-1.009l-0.027,-3.031c-0.005,-0.552 -0.457,-0.996 -1.009,-0.991l-2.494,0.022c-6.276,-6.358 -19.758,-5.763 -24.507,0.217c-5.239,-1.208 -9.704,-0.436 -11.282,0.1zm-11.998,15.897c-5.392,0 -8.108,-4.25 -8.798,-6.147c-0.793,-1.587 -1.42,-5.722 0.459,-9.007c2.389,-4.176 13.618,-5.341 17.552,0.559c3.933,5.9 0,14.595 -9.213,14.595zm44.53,-6.147c-0.69,1.897 -3.405,6.147 -8.798,6.147c-9.212,0 -13.145,-8.695 -9.212,-14.595c3.933,-5.9 15.163,-4.735 17.552,-0.559c1.879,3.285 1.252,7.42 0.458,9.007z" clip-rule="evenodd" fill-rule="evenodd" id="Subtract"/>
   <g id="Group 1272">
    <path fill="#B4B4B4" d="m163.74115,409.24907c0,-0.555 0.45,-1.004 1.005,-1.004l154.392,0c0.971,0 1.758,0.787 1.758,1.758c0,2.912 -2.361,5.274 -5.274,5.274l-145.853,0c-3.329,0 -6.028,-2.699 -6.028,-6.028z" id="Rectangle 319"/>
    <rect fill="url(#paint6_linear)" rx="2.94666" height="105.147" width="157.155" y="305.70907" x="163.74115" id="Rectangle 318"/>
    <circle fill="white" r="11.1765" cy="358.28307" cx="242.31815" id="Ellipse 192"/>
   </g>
   <g id="Group 1276">
    <path fill="url(#paint7_linear)" d="m130.65515,170.43707c0.2,-3.408 0.879,-6.262 1.446,-7.848c1.112,2.782 1.662,5.453 1.848,7.888c2.436,0.186 5.107,0.736 7.888,1.849c-1.586,0.567 -4.439,1.246 -7.848,1.445c-0.19,3.619 -1.12,6.431 -1.888,7.871c-0.935,-2.617 -1.362,-5.308 -1.473,-7.844c-2.535,-0.111 -5.227,-0.537 -7.844,-1.472c1.441,-0.768 4.252,-1.699 7.871,-1.889z" clip-rule="evenodd" fill-rule="evenodd" id="Union"/>
    <path fill="url(#paint8_linear)" d="m103.76815,148.01107c0.132,-2.269 0.585,-4.169 0.962,-5.224c0.74,1.851 1.106,3.629 1.23,5.25c1.621,0.124 3.399,0.49 5.251,1.231c-1.056,0.377 -2.955,0.829 -5.224,0.962c-0.127,2.409 -0.746,4.28 -1.257,5.239c-0.622,-1.742 -0.906,-3.534 -0.98,-5.221c-1.688,-0.074 -3.48,-0.358 -5.2215,-0.98c0.9585,-0.511 2.8305,-1.131 5.2395,-1.257z" clip-rule="evenodd" fill-rule="evenodd" id="Union_2"/>
    <path fill="url(#paint9_linear)" d="m60.44455,132.03307c0.1993,-3.409 0.8789,-6.262 1.4453,-7.848c1.1128,2.782 1.6628,5.452 1.8488,7.888c2.4356,0.186 5.1063,0.736 7.8882,1.849c-1.586,0.566 -4.4395,1.246 -7.8481,1.445c-0.1901,3.619 -1.1208,6.431 -1.8889,7.871c-0.9345,-2.617 -1.361,-5.309 -1.4723,-7.844c-2.5352,-0.111 -5.2269,-0.538 -7.8438,-1.472c1.4402,-0.768 4.2519,-1.699 7.8708,-1.889z" clip-rule="evenodd" fill-rule="evenodd" id="Union_3"/>
    <path fill="url(#paint10_linear)" d="m64.15355,210.37407c0.2932,-5.015 1.2931,-9.213 2.1264,-11.547c1.6372,4.093 2.4464,8.022 2.72,11.606c3.5833,0.273 7.5126,1.083 11.6053,2.72c-2.3334,0.833 -6.5314,1.833 -11.5464,2.126c-0.2797,5.324 -1.6489,9.461 -2.7789,11.58c-1.375,-3.85 -2.0024,-7.81 -2.1661,-11.54c-3.7299,-0.164 -7.6901,-0.791 -11.5401,-2.166c2.1188,-1.13 6.2556,-2.5 11.5798,-2.779z" clip-rule="evenodd" fill-rule="evenodd" id="Union_4"/>
    <circle fill="#2F235A" r="1.8414" cy="180.71907" cx="94.62245" id="Ellipse 199"/>
    <circle fill="#FE9076" r="1.8414" cy="127.92207" cx="136.88015" id="Ellipse 200"/>
    <circle fill="#FFA400" r="1.8414" cy="173.40907" cx="44.26065" id="Ellipse 201"/>
    <circle fill="#23BB86" r="1.8414" cy="209.11907" cx="126.78715" id="Ellipse 202"/>
    <path stroke-linecap="round" stroke-width="1.60277" stroke="#FE9076" d="m132.36815,120.23707c-4.163,-5.718 -15.89,-17.931 -29.494,-21.0405" id="Vector 95"/>
    <path stroke-linecap="round" stroke-width="1.60277" stroke="#FFA400" d="m36.49125,168.47307c-6.1531,-3.487 -21.8778,-9.766 -35.55108,-6.979" id="Vector 96"/>
    <path stroke-linecap="round" stroke-width="1.60277" stroke="#23BB86" d="m120.46715,214.46807c-3.153,2.782 -10.739,10.684 -15.858,20.031" id="Vector 97"/>
   </g>
   <g id="Group 1296">
    <path fill="url(#paint11_linear)" d="m348.00515,170.43707c-0.199,-3.408 -0.879,-6.262 -1.445,-7.848c-1.113,2.782 -1.663,5.453 -1.849,7.888c-2.436,0.186 -5.107,0.736 -7.888,1.849c1.586,0.567 4.439,1.246 7.848,1.445c0.19,3.619 1.12,6.431 1.889,7.871c0.934,-2.617 1.361,-5.308 1.472,-7.844c2.535,-0.111 5.227,-0.537 7.844,-1.472c-1.44,-0.768 -4.252,-1.699 -7.871,-1.889z" clip-rule="evenodd" fill-rule="evenodd" id="Union_5"/>
    <path fill="url(#paint12_linear)" d="m374.89315,148.01107c-0.133,-2.269 -0.585,-4.169 -0.962,-5.224c-0.741,1.851 -1.107,3.629 -1.231,5.25c-1.621,0.124 -3.399,0.49 -5.251,1.231c1.056,0.377 2.955,0.829 5.224,0.962c0.127,2.409 0.746,4.28 1.258,5.239c0.622,-1.742 0.905,-3.534 0.98,-5.221c1.687,-0.074 3.479,-0.358 5.221,-0.98c-0.959,-0.511 -2.831,-1.131 -5.239,-1.257z" clip-rule="evenodd" fill-rule="evenodd" id="Union_6"/>
    <path fill="url(#paint13_linear)" d="m418.21615,132.03307c-0.2,-3.409 -0.879,-6.262 -1.446,-7.848c-1.112,2.782 -1.662,5.452 -1.848,7.888c-2.436,0.186 -5.107,0.736 -7.889,1.849c1.586,0.566 4.44,1.246 7.849,1.445c0.19,3.619 1.12,6.431 1.888,7.871c0.935,-2.617 1.361,-5.309 1.473,-7.844c2.535,-0.111 5.227,-0.538 7.843,-1.472c-1.44,-0.768 -4.251,-1.699 -7.87,-1.889z" clip-rule="evenodd" fill-rule="evenodd" id="Union_7"/>
    <path fill="url(#paint14_linear)" d="m414.50715,210.37407c-0.294,-5.015 -1.293,-9.213 -2.127,-11.547c-1.637,4.093 -2.446,8.022 -2.72,11.606c-3.583,0.273 -7.512,1.083 -11.605,2.72c2.333,0.833 6.531,1.833 11.546,2.126c0.28,5.324 1.649,9.461 2.779,11.58c1.375,-3.85 2.003,-7.81 2.166,-11.54c3.73,-0.164 7.69,-0.791 11.54,-2.166c-2.118,-1.13 -6.255,-2.5 -11.579,-2.779z" clip-rule="evenodd" fill-rule="evenodd" id="Union_8"/>
    <circle cx="0.58285" cy="0.18507" fill="#2F235A" transform="matrix(-1 0 0 1 384.621 180.534)" r="1.8414" id="Ellipse 199_2"/>
    <circle cx="0.58285" cy="0.18507" fill="#FE9076" transform="matrix(-1 0 0 1 342.363 127.737)" r="1.8414" id="Ellipse 200_2"/>
    <circle cx="0.58285" cy="0.18507" fill="#FFA400" transform="matrix(-1 0 0 1 434.983 173.224)" r="1.8414" id="Ellipse 201_2"/>
    <circle cx="0.58285" cy="0.18507" fill="#23BB86" transform="matrix(-1 0 0 1 352.456 208.934)" r="1.8414" id="Ellipse 202_2"/>
    <path stroke-linecap="round" stroke-width="1.60277" stroke="#FE9076" d="m346.29215,120.23707c4.163,-5.718 15.89,-17.931 29.494,-21.0405" id="Vector 95_2"/>
    <path stroke-linecap="round" stroke-width="1.60277" stroke="#FFA400" d="m442.16915,168.47307c6.153,-3.487 21.878,-9.766 35.551,-6.979" id="Vector 96_2"/>
    <path stroke-linecap="round" stroke-width="1.60277" stroke="#23BB86" d="m358.19315,214.46807c3.153,2.782 10.739,10.684 15.858,20.031" id="Vector 97_2"/>
   </g>
   <g id="Group 1293">
    <path fill="#FFBCBC" d="m269.36615,56.73567c-2.088,-3.2253 -6.314,-1.4683 -6.314,2.0452c0,2.6384 5.794,6.7655 6.314,7.3021c0.524,-0.5366 6.03,-4.6637 6.03,-7.3021c0,-3.4868 -3.938,-5.2705 -6.03,-2.0452z" id="Vector"/>
    <circle stroke-width="0.64968" stroke="#F7F7F7" r="13.7999" cy="60.56077" cx="269.22415" id="Ellipse 232"/>
   </g>
   <g id="Group 1299">
    <path fill="#FFBCBC" d="m219.84315,37.50247c-1.848,-2.8546 -5.588,-1.2995 -5.588,1.8101c0,2.3351 5.128,5.9878 5.588,6.4627c0.464,-0.4749 5.337,-4.1276 5.337,-6.4627c0,-3.086 -3.485,-4.6647 -5.337,-1.8101z" id="Vector_2"/>
    <circle stroke-width="0.575" stroke="#F7F7F7" r="12.2135" cy="40.88787" cx="219.71715" id="Ellipse 232_2"/>
   </g>
   <g id="Group 1297">
    <path fill="#FFBCBC" d="m252.52615,16.52747c-1.264,-1.9524 -3.823,-0.8888 -3.823,1.2379c0,1.5971 3.508,4.0952 3.823,4.4201c0.317,-0.3249 3.649,-2.823 3.649,-4.4201c0,-2.1106 -2.383,-3.1903 -3.649,-1.2379z" id="Vector_3"/>
    <circle stroke-width="0.39326" stroke="#F7F7F7" r="8.35318" cy="18.84277" cx="252.43915" id="Ellipse 232_3"/>
   </g>
   <g id="Group 1298">
    <path fill="#FFBCBC" d="m194.79615,5.66332c-1.034,-1.59748 -3.127,-0.72723 -3.127,1.01296c0,1.30674 2.869,3.35085 3.127,3.61659c0.259,-0.26574 2.986,-2.30985 2.986,-3.61659c0,-1.72699 -1.95,-2.61044 -2.986,-1.01296z" id="Vector_4"/>
    <circle stroke-width="0.32178" stroke="#F7F7F7" r="6.83488" cy="7.5578" cx="194.72515" id="Ellipse 232_4"/>
   </g>
   <g id="Group 1294">
    <path fill="#FFBCBC" d="m189.70915,80.54937c-2.258,-3.4878 -6.828,-1.5878 -6.828,2.2116c0,2.853 6.265,7.3159 6.828,7.8962c0.567,-0.5803 6.521,-5.0432 6.521,-7.8962c0,-3.7706 -4.259,-5.6994 -6.521,-2.2116z" id="Vector_5"/>
    <circle stroke-width="0.70254" stroke="#F7F7F7" r="14.9226" cy="84.68547" cx="189.55515" id="Ellipse 232_5"/>
   </g>
  </g>
 </g>
</svg>