
<svg width="1024" height="276.742" xmlns="http://www.w3.org/2000/svg">

 <g>
  <title>Layer 1</title>
  <path id="svg_1" fill="#d81f26" d="m140.803,258.904c-15.404,2.705 -31.079,3.516 -47.294,5.676l-49.458,-144.856l0,151.073c-15.404,1.621 -29.457,3.783 -44.051,5.945l0,-276.742l41.08,0l56.212,157.021l0,-157.021l43.511,0l0,258.904zm85.131,-157.558c16.757,0 42.431,-0.811 57.835,-0.811l0,43.24c-19.189,0 -41.619,0 -57.835,0.811l0,64.322c25.405,-1.621 50.809,-3.785 76.482,-4.596l0,41.617l-119.724,9.461l0,-255.39l119.724,0l0,43.241l-76.482,0l0,58.105zm237.284,-58.104l-44.862,0l0,198.908c-14.594,0 -29.188,0 -43.239,0.539l0,-199.447l-44.862,0l0,-43.242l132.965,0l-0.002,43.242zm70.266,55.132l59.187,0l0,43.24l-59.187,0l0,98.104l-42.433,0l0,-239.718l120.808,0l0,43.241l-78.375,0l0,55.133zm148.641,103.507c24.594,0.539 49.456,2.434 73.51,3.783l0,42.701c-38.646,-2.434 -77.293,-4.863 -116.75,-5.676l0,-242.689l43.24,0l0,201.881zm109.994,49.457c13.783,0.812 28.377,1.623 42.43,3.242l0,-254.58l-42.43,0l0,251.338zm231.881,-251.338l-54.863,131.615l54.863,145.127c-16.217,-2.162 -32.432,-5.135 -48.648,-7.838l-31.078,-79.994l-31.617,73.51c-15.678,-2.705 -30.812,-3.516 -46.484,-5.678l55.672,-126.75l-50.269,-129.992l46.482,0l28.377,72.699l30.27,-72.699l47.295,0z"/>
 </g>
</svg>