
<svg width="146" height="167" xmlns="http://www.w3.org/2000/svg" fill="none">
 <mask id="mask0" maskUnits="userSpaceOnUse" x="26" y="104" width="91" height="63">
  <rect x="26.8154" y="104.439" width="89.8505" height="62.1103" fill="#C4C4C4" id="svg_1"/>
 </mask>
 <mask id="mask1" maskUnits="userSpaceOnUse" x="87" y="104" width="30" height="63">
  <rect x="87.9179" y="104.439" width="28.7479" height="62.1103" fill="#C4C4C4" id="svg_2"/>
 </mask>
 <defs>
  <linearGradient id="paint0_linear" x1="0.65846" y1="0.11075" x2="0.29075" y2="1.04969">
   <stop stop-color="#FFE89E"/>
   <stop offset="1" stop-color="#FFBF1A"/>
  </linearGradient>
  <linearGradient id="paint1_linear" x1="0.65847" y1="0.11076" x2="0.29075" y2="1.0497">
   <stop stop-color="#FFE89E"/>
   <stop offset="1" stop-color="#FFBF1A"/>
  </linearGradient>
  <linearGradient id="paint2_linear" x1="0.65846" y1="0.11076" x2="0.29073" y2="1.04969">
   <stop stop-color="#FFE89E"/>
   <stop offset="1" stop-color="#FFBF1A"/>
  </linearGradient>
  <linearGradient id="paint3_linear" x1="0.65846" y1="0.11076" x2="0.29074" y2="1.04969">
   <stop stop-color="#FFE89E"/>
   <stop offset="1" stop-color="#FFBF1A"/>
  </linearGradient>
  <linearGradient id="paint4_linear" x1="0.34154" y1="0.11075" x2="0.70925" y2="1.04969">
   <stop stop-color="#FFE89E"/>
   <stop offset="1" stop-color="#FFBF1A"/>
  </linearGradient>
  <linearGradient id="paint5_linear" x1="0.34154" y1="0.11076" x2="0.70932" y2="1.0497">
   <stop stop-color="#FFE89E"/>
   <stop offset="1" stop-color="#FFBF1A"/>
  </linearGradient>
  <linearGradient id="paint6_linear" x1="0.34159" y1="0.11076" x2="0.70929" y2="1.04969">
   <stop stop-color="#FFE89E"/>
   <stop offset="1" stop-color="#FFBF1A"/>
  </linearGradient>
  <linearGradient id="paint7_linear" x1="0.34153" y1="0.11076" x2="0.70931" y2="1.04969">
   <stop stop-color="#FFE89E"/>
   <stop offset="1" stop-color="#FFBF1A"/>
  </linearGradient>
  <linearGradient id="paint8_linear" x1="0.33405" y1="-0.18514" x2="-0.06451" y2="1.40288">
   <stop stop-color="#FFD481"/>
   <stop offset="1" stop-color="#FA620C"/>
  </linearGradient>
  <linearGradient id="paint9_linear" x1="-0.50943" y1="-0.06342" x2="0.70014" y2="1.80646">
   <stop stop-color="#FFD481"/>
   <stop offset="0.83311" stop-color="#FA620C"/>
  </linearGradient>
  <linearGradient id="paint10_linear" x1="0.17914" y1="-0.35738" x2="0.13931" y2="1.77326">
   <stop stop-color="#FFD481"/>
   <stop offset="1" stop-color="#FA620C"/>
  </linearGradient>
  <linearGradient id="paint11_linear" x1="0.82086" y1="-0.35738" x2="0.94822" y2="1.75085">
   <stop stop-color="#FFD481"/>
   <stop offset="1" stop-color="#FA620C"/>
  </linearGradient>
  <linearGradient id="paint12_linear" x1="0.53786" y1="-0.16502" x2="0.44275" y2="1.18459">
   <stop stop-color="#FF9F81"/>
   <stop offset="1" stop-color="#F53838"/>
  </linearGradient>
  <linearGradient id="paint13_linear" x1="0.53786" y1="-0.16501" x2="0.44275" y2="1.18461">
   <stop stop-color="#FF9F81"/>
   <stop offset="1" stop-color="#F53838"/>
  </linearGradient>
  <linearGradient id="paint14_linear" x1="0.53786" y1="-0.16502" x2="0.44276" y2="1.1846">
   <stop stop-color="#FF9F81"/>
   <stop offset="1" stop-color="#F53838"/>
  </linearGradient>
  <linearGradient id="paint15_linear" x1="0.53786" y1="-0.16502" x2="0.44275" y2="1.18461">
   <stop stop-color="#FF9F81"/>
   <stop offset="1" stop-color="#F53838"/>
  </linearGradient>
  <linearGradient id="paint16_linear" x1="0.53786" y1="-0.16502" x2="0.44275" y2="1.1846">
   <stop stop-color="#FF9F81"/>
   <stop offset="1" stop-color="#F53838"/>
  </linearGradient>
  <linearGradient id="paint17_linear" x1="0.49178" y1="0" x2="0.49178" y2="2.12453">
   <stop stop-color="white" stop-opacity="0"/>
   <stop offset="1" stop-color="#FE9277"/>
  </linearGradient>
 </defs>
 <g>
  <title>Layer 1</title>
  <g id="svg_45">
   <path fill-rule="evenodd" clip-rule="evenodd" d="m52.0247,40.6874c0.6568,-1.4257 1.4261,-2.5333 1.9344,-3.1172c0.01,1.3773 -0.2023,2.6128 -0.531,3.6866c1.0114,0.4879 2.0625,1.1711 3.0667,2.1137c-0.7739,-0.0234 -2.1092,-0.2108 -3.6018,-0.6969c-0.688,1.5172 -1.5577,2.5648 -2.1279,3.0525c0.0386,-1.2769 0.3073,-2.5006 0.6847,-3.6044c-1.0666,-0.4726 -2.1474,-1.1064 -3.1109,-1.9452c0.7452,-0.0874 2.1049,-0.0144 3.6858,0.5109z" fill="url(#paint0_linear)" id="svg_3"/>
   <path fill-rule="evenodd" clip-rule="evenodd" d="m46.8334,26.4047c0.4371,-0.949 0.9491,-1.6862 1.2875,-2.0749c0.0067,0.9168 -0.1346,1.7392 -0.3534,2.4539c0.6732,0.3248 1.3728,0.7795 2.0412,1.407c-0.5151,-0.0156 -1.4039,-0.1404 -2.3974,-0.4639c-0.458,1.0099 -1.0369,1.7072 -1.4164,2.0318c0.0257,-0.8499 0.2045,-1.6644 0.4557,-2.3992c-0.7099,-0.3146 -1.4293,-0.7365 -2.0707,-1.2948c0.4961,-0.0581 1.4011,-0.0096 2.4535,0.3401z" fill="url(#paint1_linear)" id="svg_4"/>
   <path fill-rule="evenodd" clip-rule="evenodd" d="m32.7827,12.2071c0.6567,-1.4257 1.426,-2.53324 1.9344,-3.1172c0.0099,1.3774 -0.2024,2.6128 -0.5311,3.6866c1.0114,0.4879 2.0625,1.1711 3.0668,2.1137c-0.7739,-0.0234 -2.1093,-0.2108 -3.6018,-0.6969c-0.6881,1.5172 -1.5578,2.5648 -2.128,3.0525c0.0386,-1.2768 0.3073,-2.5006 0.6847,-3.6044c-1.0666,-0.4726 -2.1473,-1.1065 -3.1108,-1.9452c0.7452,-0.0874 2.1048,-0.0144 3.6858,0.5109z" fill="url(#paint2_linear)" id="svg_5"/>
   <path fill-rule="evenodd" clip-rule="evenodd" d="m30.5563,44.1723c0.9663,-2.0976 2.098,-3.727 2.8459,-4.5862c0.0147,2.0264 -0.2976,3.8441 -0.7812,5.4239c1.488,0.7178 3.0343,1.7229 4.5118,3.1098c-1.1385,-0.0344 -3.1031,-0.3102 -5.299,-1.0254c-1.0123,2.2322 -2.2918,3.7734 -3.1308,4.491c0.0569,-1.8786 0.4521,-3.6789 1.0074,-5.303c-1.5692,-0.6953 -3.1593,-1.6278 -4.5768,-2.8618c1.0964,-0.1285 3.0967,-0.0211 5.4227,0.7517z" fill="url(#paint3_linear)" id="svg_6"/>
   <circle cx="36.3693" cy="29.8161" r="0.84653" fill="#2F235A" id="svg_7" transform="rotate(21.3865 36.3693 29.8161)"/>
   <circle cx="57.3296" cy="19.1722" r="0.84653" fill="#FE9076" id="svg_8" transform="rotate(21.3865 57.3296 19.1722)"/>
   <circle cx="17.0945" cy="23.7964" r="0.84653" fill="#FFA400" id="svg_9" transform="rotate(21.3865 17.0945 23.7964)"/>
   <circle cx="35.2724" cy="57.8818" r="0.84653" fill="#23BB86" id="svg_10" transform="rotate(21.3865 35.2724 57.8818)"/>
   <path d="m56.6865,15.1261c-0.8235,-3.1454 -3.7962,-10.33929 -9.0981,-13.95082" stroke="#FE9076" stroke-width="0.73682" stroke-linecap="round" id="svg_11"/>
   <path d="m14.5961,20.3814c-2.0493,-2.5245 -7.72796,-7.8481 -14.04825,-8.9471" stroke="#FFA400" stroke-width="0.73682" stroke-linecap="round" id="svg_12"/>
   <path d="m31.6704,59.112c-1.8161,0.6623 -6.3879,2.7728 -10.1463,5.9161" stroke="#23BB86" stroke-width="0.73682" stroke-linecap="round" id="svg_13"/>
   <path fill-rule="evenodd" clip-rule="evenodd" d="m93.9753,40.6874c-0.6568,-1.4257 -1.4261,-2.5333 -1.9344,-3.1172c-0.01,1.3773 0.2023,2.6128 0.531,3.6866c-1.0114,0.4879 -2.0625,1.1711 -3.0667,2.1137c0.7739,-0.0234 2.1092,-0.2108 3.6018,-0.6969c0.688,1.5172 1.5577,2.5648 2.1279,3.0525c-0.0386,-1.2769 -0.3073,-2.5006 -0.6847,-3.6044c1.0666,-0.4726 2.1474,-1.1064 3.1109,-1.9452c-0.7452,-0.0874 -2.1049,-0.0144 -3.6858,0.5109z" fill="url(#paint4_linear)" id="svg_14"/>
   <path fill-rule="evenodd" clip-rule="evenodd" d="m99.1666,26.4047c-0.4371,-0.949 -0.9491,-1.6862 -1.2875,-2.0749c-0.0067,0.9168 0.1346,1.7392 0.3534,2.4539c-0.6732,0.3248 -1.3728,0.7795 -2.0412,1.407c0.5151,-0.0156 1.4039,-0.1404 2.3974,-0.4639c0.458,1.0099 1.0369,1.7072 1.4163,2.0318c-0.0256,-0.8499 -0.2044,-1.6644 -0.4556,-2.3992c0.7096,-0.3146 1.4296,-0.7365 2.0706,-1.2948c-0.496,-0.0581 -1.401,-0.0096 -2.4534,0.3401z" fill="url(#paint5_linear)" id="svg_15"/>
   <path fill-rule="evenodd" clip-rule="evenodd" d="m113.217,12.2071c-0.656,-1.4257 -1.426,-2.53324 -1.934,-3.1172c-0.01,1.3774 0.202,2.6128 0.531,3.6866c-1.011,0.4879 -2.062,1.1711 -3.067,2.1137c0.774,-0.0234 2.109,-0.2108 3.602,-0.6969c0.688,1.5172 1.558,2.5648 2.128,3.0525c-0.039,-1.2768 -0.307,-2.5006 -0.685,-3.6044c1.067,-0.4726 2.148,-1.1065 3.111,-1.9452c-0.745,-0.0874 -2.105,-0.0144 -3.686,0.5109z" fill="url(#paint6_linear)" id="svg_16"/>
   <path fill-rule="evenodd" clip-rule="evenodd" d="m115.444,44.1723c-0.967,-2.0976 -2.098,-3.727 -2.846,-4.5862c-0.015,2.0264 0.297,3.8441 0.781,5.4239c-1.488,0.7178 -3.034,1.7229 -4.512,3.1098c1.139,-0.0344 3.103,-0.3102 5.299,-1.0254c1.012,2.2322 2.292,3.7734 3.131,4.491c-0.057,-1.8786 -0.452,-3.6789 -1.007,-5.303c1.569,-0.6953 3.159,-1.6278 4.576,-2.8618c-1.096,-0.1285 -3.096,-0.0211 -5.422,0.7517z" fill="url(#paint7_linear)" id="svg_17"/>
   <circle r="0.84653" transform="matrix(-0.931142 0.364658 0.364658 0.931142 109.631 29.8161)" fill="#2F235A" id="svg_18"/>
   <circle r="0.84653" transform="matrix(-0.931142 0.364658 0.364658 0.931142 88.6704 19.1722)" fill="#FE9076" id="svg_19"/>
   <circle r="0.84653" transform="matrix(-0.931142 0.364658 0.364658 0.931142 128.905 23.7964)" fill="#FFA400" id="svg_20"/>
   <circle r="0.84653" transform="matrix(-0.931142 0.364658 0.364658 0.931142 110.728 57.8818)" fill="#23BB86" id="svg_21"/>
   <path d="m89.3135,15.1261c0.8235,-3.1454 3.7962,-10.33929 9.0981,-13.95082" stroke="#FE9076" stroke-width="0.73682" stroke-linecap="round" id="svg_22"/>
   <path d="m131.404,20.3814c2.049,-2.5245 7.728,-7.8481 14.048,-8.9471" stroke="#FFA400" stroke-width="0.73682" stroke-linecap="round" id="svg_23"/>
   <path d="m114.33,59.112c1.816,0.6623 6.387,2.7728 10.146,5.9161" stroke="#23BB86" stroke-width="0.73682" stroke-linecap="round" id="svg_24"/>
   <rect x="26.8154" y="104.439" width="89.8505" height="62.1103" fill="url(#paint8_linear)" id="svg_25"/>
   <g mask="url(#mask0)" id="svg_26">
    <path d="m31.0668,102.858l61.182,0l-13.8286,24.011l-61.182,0l13.8286,-24.011z" fill="black" fill-opacity="0.07" id="svg_27"/>
    <rect x="87.9173" y="104.439" width="89.8505" height="62.1103" fill="url(#paint9_linear)" id="svg_28"/>
   </g>
   <path d="m26.736,104.439l61.182,0l-11.8185,19.723l-61.182,0l11.8185,-19.723z" fill="url(#paint10_linear)" id="svg_29"/>
   <g mask="url(#mask1)" id="svg_30">
    <path d="m113.166,104.336l-28.7929,0l13.5293,22.707l28.7926,0l-13.529,-22.707z" fill="black" fill-opacity="0.07" id="svg_31"/>
   </g>
   <path d="m116.711,104.439l-28.7931,0l11.8186,19.723l28.7925,0l-11.818,-19.723z" fill="url(#paint11_linear)" id="svg_32"/>
   <circle cx="56.7434" cy="88.6195" r="8.49082" fill="url(#paint12_linear)" id="svg_33"/>
   <circle cx="89.3727" cy="67.6864" r="8.20473" fill="url(#paint13_linear)" id="svg_34"/>
   <circle cx="58.6179" cy="57.1029" r="6.61631" fill="url(#paint14_linear)" id="svg_35"/>
   <circle cx="76.9911" cy="41.9936" r="5.98519" fill="url(#paint15_linear)" id="svg_36"/>
   <circle cx="65.2343" cy="25.3705" r="4.6365" fill="url(#paint16_linear)" id="svg_37"/>
   <circle cx="73.201" cy="66.0365" r="1.65" fill="#FFA800" fill-opacity="0.23" id="svg_38"/>
   <circle cx="100.642" cy="52.1366" r="1.65" fill="#FFA800" fill-opacity="0.23" id="svg_39"/>
   <circle cx="102.292" cy="25.3705" r="1.65" fill="#FFA800" fill-opacity="0.23" id="svg_40"/>
   <circle cx="46.6025" cy="28.357" r="1.65" fill="#FFA800" fill-opacity="0.23" id="svg_41"/>
   <circle cx="80.2009" cy="92.284" r="1.65" fill="#FFA800" fill-opacity="0.23" id="svg_42"/>
   <circle cx="38.7964" cy="62.7364" r="1.65" fill="#FFA800" fill-opacity="0.23" id="svg_43"/>
   <path d="m116.878,104.733l-90.1337,0l-13.8423,-85.3477l120.598,0l-16.622,85.3477z" fill="url(#paint17_linear)" id="svg_44"/>
  </g>
 </g>
</svg>