
<svg width="339.37423" height="134.871" xmlns="http://www.w3.org/2000/svg" clip-rule="evenodd" fill-rule="evenodd" stroke-linejoin="round" stroke-miterlimit="1.4142">
 <g>
  <title>Layer 1</title>
  <g id="svg_7">
   <g id="svg_1">
    <circle r="5.687" cy="53.4335" cx="274.88857" fill="#ff4500" id="svg_2"/>
    <path d="m193.66457,77.6825c2.79,0 4.399,-2.092 4.292,-4.131c-0.053,-1.073 -0.161,-1.771 -0.268,-2.307c-1.717,-7.403 -7.725,-12.876 -14.861,-12.876c-8.476,0 -15.343,7.672 -15.343,17.114s6.867,17.114 15.343,17.114c5.312,0 9.121,-1.931 11.857,-4.989c1.341,-1.502 1.073,-3.809 -0.537,-4.936c-1.341,-0.912 -3.004,-0.59 -4.238,0.429c-1.18,1.02 -3.433,3.058 -7.082,3.058c-4.291,0 -7.939,-3.702 -8.744,-8.584l19.581,0l0,0.108zm-10.89,-12.822c3.862,0 7.189,3.004 8.423,7.135l-16.846,0c1.234,-4.184 4.56,-7.135 8.423,-7.135zm-14.968,-3.112c0,-1.609 -1.18,-2.897 -2.682,-3.165c-4.668,-0.697 -9.067,1.019 -11.588,4.185l0,-0.43c0,-1.985 -1.61,-3.218 -3.219,-3.218c-1.771,0 -3.219,1.448 -3.219,3.218l0,26.288c0,1.717 1.287,3.219 3.004,3.326c1.878,0.107 3.434,-1.341 3.434,-3.219l0,-13.573c0,-6.008 4.506,-10.944 10.729,-10.246l0.644,0c1.609,-0.108 2.897,-1.503 2.897,-3.166zm110.3,3.434c0,-1.771 -1.448,-3.219 -3.218,-3.219c-1.771,0 -3.219,1.448 -3.219,3.219l0,23.551c0,1.771 1.448,3.219 3.219,3.219c1.77,0 3.218,-1.448 3.218,-3.219l0,-23.551zm-47.854,-17.811c0,-1.771 -1.448,-3.219 -3.219,-3.219c-1.77,0 -3.218,1.448 -3.218,3.219l0,14.324c-2.2,-2.2 -4.936,-3.273 -8.209,-3.273c-8.476,0 -15.343,7.672 -15.343,17.114s6.867,17.114 15.343,17.114c3.273,0 6.063,-1.127 8.262,-3.327c0.268,1.503 1.61,2.629 3.165,2.629c1.771,0 3.219,-1.448 3.219,-3.219l0,-41.362zm-14.592,38.894c-4.936,0 -8.906,-4.774 -8.906,-10.729c0,-5.901 3.97,-10.73 8.906,-10.73s8.906,4.775 8.906,10.73s-4.024,10.729 -8.906,10.729zm48.176,-38.894c0,-1.771 -1.448,-3.219 -3.219,-3.219c-1.77,0 -3.219,1.448 -3.219,3.219l0,14.324c-2.199,-2.2 -4.935,-3.273 -8.208,-3.273c-8.476,0 -15.343,7.672 -15.343,17.114s6.867,17.114 15.343,17.114c3.273,0 6.062,-1.127 8.262,-3.327c0.268,1.503 1.609,2.629 3.165,2.629c1.771,0 3.219,-1.448 3.219,-3.219l0,-41.362zm-14.646,38.894c-4.936,0 -8.905,-4.774 -8.905,-10.729c0,-5.901 3.969,-10.73 8.905,-10.73s8.906,4.775 8.906,10.73s-3.97,10.729 -8.906,10.729zm45.225,2.522l0,-23.927l2.844,0c1.502,0 2.843,-1.127 2.95,-2.683c0.108,-1.663 -1.233,-3.057 -2.843,-3.057l-2.951,0l0,-4.507c0,-1.717 -1.287,-3.219 -3.004,-3.326c-1.878,-0.107 -3.433,1.341 -3.433,3.219l0,4.667l-2.683,0c-1.502,0 -2.843,1.127 -2.95,2.683c-0.108,1.663 1.234,3.058 2.843,3.058l2.736,0l0,23.927c0,1.77 1.449,3.218 3.219,3.218c1.878,-0.107 3.272,-1.502 3.272,-3.272z" fill="#222" fill-rule="nonzero" id="svg_3"/>
   </g>
   <g id="svg_4">
    <circle r="44.957" cy="67.4355" cx="84.11557" fill="#ff4500" id="svg_5"/>
    <path d="m114.10457,67.4355c0,-3.648 -2.95,-6.545 -6.545,-6.545c-1.77,0 -3.38,0.697 -4.56,1.824c-4.506,-3.219 -10.676,-5.311 -17.543,-5.579l3.004,-14.056l9.764,2.092c0.108,2.468 2.146,4.453 4.668,4.453c2.575,0 4.667,-2.092 4.667,-4.668c0,-2.575 -2.092,-4.667 -4.667,-4.667c-1.824,0 -3.434,1.073 -4.185,2.629l-10.89,-2.307c-0.322,-0.054 -0.644,0 -0.859,0.161c-0.268,0.161 -0.429,0.429 -0.482,0.751l-3.327,15.665c-6.974,0.215 -13.251,2.307 -17.811,5.58a6.5883,6.5883 0 0 0 -4.56,-1.824c-3.648,0 -6.545,2.95 -6.545,6.545c0,2.682 1.609,4.935 3.863,5.955c-0.108,0.643 -0.161,1.287 -0.161,1.985c0,10.085 11.749,18.294 26.234,18.294c14.485,0 26.234,-8.155 26.234,-18.294c0,-0.644 -0.054,-1.342 -0.161,-1.985c2.253,-1.02 3.862,-3.327 3.862,-6.009zm-44.957,4.667c0,-2.575 2.092,-4.667 4.668,-4.667c2.575,0 4.667,2.092 4.667,4.667c0,2.575 -2.092,4.668 -4.667,4.668c-2.576,0.053 -4.668,-2.093 -4.668,-4.668zm26.127,12.393c-3.219,3.219 -9.335,3.434 -11.105,3.434c-1.824,0 -7.94,-0.269 -11.106,-3.434c-0.482,-0.483 -0.482,-1.234 0,-1.717c0.483,-0.482 1.234,-0.482 1.717,0c2.039,2.039 6.331,2.736 9.389,2.736c3.058,0 7.403,-0.697 9.388,-2.736c0.483,-0.482 1.234,-0.482 1.717,0c0.429,0.483 0.429,1.234 0,1.717zm-0.859,-7.672c-2.575,0 -4.667,-2.092 -4.667,-4.667c0,-2.575 2.092,-4.667 4.667,-4.667c2.576,0 4.668,2.092 4.668,4.667c0,2.521 -2.092,4.667 -4.668,4.667z" fill="#fff" fill-rule="nonzero" id="svg_6"/>
   </g>
  </g>
 </g>

</svg>